<?xml version="1.0" standalone="no"?>
<!DOCTYPE svg PUBLIC "-//W3C//DTD SVG 20010904//EN"
 "http://www.w3.org/TR/2001/REC-SVG-20010904/DTD/svg10.dtd">
<svg version="1.0" xmlns="http://www.w3.org/2000/svg"
 width="640.000000pt" height="640.000000pt" viewBox="0 0 640.000000 640.000000"
 preserveAspectRatio="xMidYMid meet">
<metadata>
Created by potrace 1.14, written by Peter Selinger 2001-2017
</metadata>
<g transform="translate(0.000000,640.000000) scale(0.100000,-0.100000)"
fill="#000000" stroke="none">
<path d="M2093 6320 c3 -14 16 -79 27 -145 25 -140 25 -144 46 -255 8 -47 19
-107 24 -135 5 -27 24 -138 44 -245 19 -107 38 -211 41 -230 4 -19 11 -60 16
-90 26 -139 27 -132 -34 -163 -207 -107 -453 -310 -606 -502 -30 -38 -56 -71
-57 -73 0 -1 -131 45 -290 104 -159 58 -318 116 -354 129 -67 24 -509 187
-545 201 -26 11 -25 9 355 -307 421 -351 610 -510 610 -513 0 -2 -11 -28 -24
-57 -24 -55 -72 -200 -80 -241 -2 -13 -9 -41 -14 -63 -11 -39 -28 -141 -38
-220 -3 -22 -7 -109 -8 -194 l-3 -154 -104 -37 c-334 -119 -654 -235 -719
-259 -41 -16 -140 -52 -220 -81 -80 -29 -146 -54 -148 -55 -2 -1 281 -2 628
-1 347 1 634 -1 638 -4 4 -3 20 -43 36 -90 69 -206 220 -469 367 -639 39 -45
69 -88 66 -95 -3 -7 -69 -123 -147 -257 -79 -134 -150 -257 -160 -274 -88
-154 -273 -470 -294 -504 -15 -24 -26 -44 -24 -46 2 -2 28 17 58 42 30 25 75
62 99 82 24 20 49 41 55 46 13 12 192 163 220 185 10 8 23 20 30 25 6 6 45 39
86 74 41 34 86 73 100 84 14 12 66 55 115 97 50 41 92 77 95 80 14 15 109 90
114 90 3 0 30 -16 61 -35 150 -96 393 -198 575 -240 8 -2 26 -6 40 -9 35 -8
79 -16 120 -22 19 -3 44 -7 55 -9 11 -2 25 -4 31 -4 6 -1 11 -7 11 -13 0 -22
13 -103 29 -188 2 -14 7 -40 10 -59 3 -18 8 -43 10 -55 7 -38 33 -190 39 -231
4 -22 8 -47 10 -55 2 -8 7 -33 10 -55 3 -23 8 -52 10 -65 16 -77 25 -129 61
-348 26 -158 42 -210 45 -147 1 14 2 28 3 33 2 4 6 30 11 57 4 28 9 59 11 70
2 11 7 34 9 50 3 17 12 66 20 110 8 44 17 94 19 110 18 110 48 280 51 284 1 3
6 31 10 61 3 30 8 62 10 70 2 8 7 31 10 50 3 19 10 60 15 90 5 30 12 69 14 85
3 17 10 54 16 84 5 29 10 55 10 57 0 3 40 11 93 19 233 33 476 120 705 252
l94 54 46 -38 c26 -20 49 -40 52 -43 3 -3 30 -25 60 -50 30 -25 57 -47 60 -50
3 -4 95 -82 205 -174 110 -92 211 -178 225 -189 14 -12 52 -44 85 -72 33 -27
98 -83 144 -122 47 -40 86 -71 88 -69 2 2 -71 130 -162 286 -91 155 -165 284
-165 286 0 3 -11 21 -24 42 -13 20 -81 135 -150 255 -142 244 -136 221 -65
297 150 161 309 441 388 680 l21 66 631 -2 c347 -1 627 2 622 6 -4 4 -134 52
-288 108 -457 164 -859 310 -875 316 -12 5 -15 29 -14 134 1 257 -53 539 -145
754 l-20 47 217 181 c119 100 226 189 237 198 35 29 199 166 220 184 11 9 81
67 155 128 74 62 139 117 145 122 5 5 -35 -8 -90 -28 -55 -20 -143 -52 -195
-71 -159 -57 -503 -183 -540 -198 -19 -8 -109 -41 -200 -74 l-165 -61 -20 23
c-11 13 -40 48 -65 77 -155 185 -378 367 -574 470 l-67 35 6 40 c3 22 7 50 9
61 2 12 7 37 10 55 3 19 8 45 11 59 6 28 23 128 31 175 2 17 9 50 14 75 5 25
17 90 26 145 9 55 18 109 20 120 2 11 11 56 19 100 8 44 17 94 20 110 31 167
55 309 53 311 -2 1 -77 -127 -167 -284 -248 -433 -463 -807 -467 -811 -1 -2
-25 2 -51 8 -51 11 -91 18 -163 27 -25 3 -56 7 -70 10 -33 6 -338 6 -370 0
-14 -3 -47 -7 -75 -10 -27 -3 -88 -12 -134 -21 -47 -8 -85 -14 -86 -12 -1 1
-56 97 -122 212 -333 580 -506 880 -511 885 -2 3 -2 -6 1 -20z m385 -890 l130
-225 -87 -31 c-57 -20 -88 -27 -92 -20 -4 6 -19 81 -34 166 -15 85 -29 164
-31 175 -2 11 -9 49 -14 85 -6 36 -13 74 -16 85 -7 28 -5 24 144 -235z m1573
139 c-11 -57 -22 -122 -26 -144 -32 -197 -52 -280 -66 -277 -36 8 -159 55
-159 61 0 4 48 90 106 192 58 101 118 205 133 231 14 25 27 45 28 44 2 -1 -6
-49 -16 -107z m-659 -333 c42 -4 85 -8 95 -10 10 -2 51 -9 90 -16 l73 -12 -37
-66 c-20 -37 -40 -71 -44 -77 -6 -9 -174 -300 -222 -385 -11 -19 -40 -71 -66
-115 -74 -128 -71 -114 -38 -170 16 -27 32 -53 36 -57 4 -4 115 181 246 412
132 230 245 419 250 419 6 0 48 -14 95 -32 85 -32 85 -32 84 -67 0 -19 -3 -51
-6 -70 -4 -19 -12 -62 -18 -95 -5 -33 -13 -76 -16 -95 -3 -19 -10 -54 -15 -78
-5 -23 -12 -59 -14 -80 -3 -20 -10 -57 -15 -82 -4 -25 -13 -72 -19 -105 -6
-33 -17 -96 -25 -140 -9 -44 -17 -96 -20 -115 -2 -19 -9 -55 -15 -80 -5 -25
-13 -67 -17 -95 -3 -27 -8 -53 -10 -56 -1 -3 -6 -27 -10 -54 -3 -27 -9 -57
-13 -67 -6 -16 -8 -16 -31 5 -14 12 -38 32 -53 44 l-28 22 51 18 c29 10 55 25
60 33 12 23 23 120 14 120 -9 0 -86 -27 -119 -41 -11 -5 -49 -19 -85 -32 -97
-34 -103 -30 -197 132 -43 75 -83 145 -89 156 -6 11 -53 94 -106 185 -52 91
-157 273 -233 405 -75 132 -147 256 -158 275 -11 19 -17 32 -13 29 4 -4 31 -1
59 6 65 17 107 23 204 31 43 4 79 7 80 8 5 4 223 -2 295 -8z m-667 -233 c50
-87 105 -184 123 -218 19 -33 42 -73 52 -90 10 -16 27 -46 38 -65 15 -28 311
-542 329 -572 2 -5 -28 -8 -68 -8 l-71 0 18 28 c43 65 44 72 20 111 -12 20
-25 44 -29 54 -3 9 -11 17 -16 17 -5 0 -42 -56 -81 -125 -64 -112 -74 -125
-103 -130 -34 -6 -59 2 -447 145 -107 40 -242 89 -300 110 -58 21 -204 75
-324 119 -121 45 -221 81 -223 81 -14 0 79 110 172 205 118 120 264 234 401
315 94 56 114 60 115 28 0 -13 2 -30 4 -38 4 -20 43 -235 50 -280 3 -19 8 -42
10 -50 2 -8 7 -31 10 -50 3 -19 10 -60 16 -90 6 -30 12 -64 13 -75 15 -102 41
-232 48 -242 5 -6 28 -18 51 -26 23 -8 50 -18 59 -22 19 -8 20 -22 -12 160
-27 146 -26 144 -35 190 -5 22 -9 49 -10 60 -2 11 -15 85 -29 165 -57 308 -67
373 -58 382 9 9 161 67 177 67 6 1 51 -70 100 -156z m1490 -42 c33 -19 65 -39
70 -43 6 -5 46 -35 90 -67 106 -78 221 -186 311 -292 41 -48 74 -89 74 -92 0
-2 -37 -18 -82 -35 -198 -73 -356 -132 -393 -145 -22 -8 -92 -33 -155 -56 -63
-24 -131 -48 -150 -55 -32 -12 -35 -17 -47 -76 -7 -35 -11 -65 -9 -68 4 -4
117 36 351 123 355 133 560 204 566 198 3 -5 27 -44 53 -88 l47 -80 -38 -34
c-63 -56 -86 -75 -138 -116 -27 -22 -52 -43 -55 -46 -3 -4 -59 -51 -125 -105
-66 -55 -133 -111 -150 -125 -32 -28 -324 -271 -393 -327 -23 -19 -51 -43 -64
-54 l-23 -19 -12 63 c-6 35 -12 66 -12 70 -1 4 24 -2 54 -14 l54 -20 39 30
c21 17 44 38 51 45 13 17 23 12 -129 67 -58 21 -112 41 -122 45 -22 9 -39 54
-33 90 3 17 12 66 20 110 19 101 65 363 69 390 2 11 10 58 19 105 9 47 18 101
21 120 3 19 8 46 10 60 20 107 44 239 67 370 11 63 22 123 25 132 5 19 4 19
139 -61z m-2920 -501 c110 -40 205 -75 211 -79 7 -4 -5 -34 -35 -87 l-47 -82
-207 172 c-113 94 -206 174 -207 178 0 4 19 -1 43 -11 23 -10 132 -51 242 -91z
m4089 91 c-75 -67 -396 -331 -402 -331 -10 0 -87 131 -87 149 0 9 86 45 238
101 131 49 241 91 245 94 3 3 8 4 11 1 2 -3 0 -9 -5 -14z m-3621 -262 c105
-38 239 -88 297 -109 138 -51 592 -218 653 -240 26 -9 49 -19 50 -22 1 -3 -14
-18 -33 -34 -19 -16 -42 -35 -50 -43 -15 -15 -15 -15 -35 85 -3 14 -20 25 -57
38 -29 9 -58 20 -65 22 -7 3 -11 -2 -9 -13 2 -10 7 -38 12 -63 4 -25 8 -47 9
-50 18 -90 26 -175 17 -178 -7 -2 -12 -10 -12 -18 0 -8 -6 -16 -12 -19 -27 -8
-275 -98 -308 -111 -19 -7 -93 -34 -165 -59 -71 -25 -170 -61 -220 -79 -175
-66 -570 -206 -579 -206 -9 0 -2 303 9 350 3 14 8 45 11 70 16 126 108 429
136 446 5 3 24 -7 41 -23 18 -17 158 -135 312 -263 154 -128 288 -240 297
-247 17 -15 41 -11 121 19 l29 11 -24 21 c-22 20 -245 206 -493 411 -66 55
-122 102 -125 105 -3 3 -29 25 -58 49 l-52 43 18 32 c69 116 87 146 89 146 2
0 90 -32 196 -71z m3260 -296 c50 -132 92 -292 103 -388 3 -22 8 -63 13 -91
12 -82 14 -324 2 -324 -9 0 -27 6 -86 31 -11 4 -40 15 -65 23 -61 20 -225 79
-460 165 -107 39 -198 71 -202 71 -5 0 -21 -11 -36 -24 -15 -13 -38 -33 -51
-43 l-24 -19 227 -82 c124 -45 328 -119 454 -164 125 -45 230 -86 233 -90 3
-5 2 -30 -2 -56 -5 -26 -11 -66 -15 -90 -4 -23 -12 -46 -18 -49 -5 -4 -175 -6
-376 -5 -201 0 -486 1 -633 2 l-269 0 23 38 c12 20 28 47 34 60 12 23 13 22
44 -27 l31 -51 65 0 c36 0 65 3 65 6 0 3 -32 62 -71 129 -59 104 -70 128 -64
153 5 23 35 54 118 124 62 51 123 102 137 114 14 12 122 102 240 200 118 98
220 183 226 189 6 5 33 28 60 50 26 22 95 79 152 128 57 48 108 87 112 87 4 0
18 -30 33 -67z m-1668 -8 c39 -8 111 -35 160 -59 346 -171 490 -593 320 -937
-45 -91 -67 -122 -135 -190 -75 -75 -149 -123 -241 -159 -91 -35 -109 -39
-220 -47 -200 -14 -390 60 -536 206 -140 141 -212 321 -207 512 2 71 19 183
32 204 4 6 7 15 8 22 3 17 63 133 87 168 84 119 237 228 378 269 116 34 226
37 354 11z m-896 -559 l-12 -66 -44 36 -43 36 -66 -22 c-77 -26 -84 -10 66
-137 80 -68 96 -86 98 -112 2 -25 -41 -107 -214 -404 -119 -205 -266 -457
-327 -562 -60 -104 -116 -200 -123 -213 -14 -22 -15 -22 -60 29 -153 172 -292
409 -369 625 -18 52 -32 95 -31 95 0 1 197 3 436 4 l435 2 32 54 c18 30 33 57
33 61 0 4 -218 7 -485 5 -479 -2 -486 -2 -490 18 -18 81 -31 175 -26 182 3 5
74 33 156 62 83 29 159 57 170 61 11 5 85 32 165 61 163 58 220 78 505 183
110 40 201 72 203 70 2 -1 -3 -31 -9 -68z m-1238 -398 c0 -7 2 -20 4 -28 7
-32 18 -106 19 -125 1 -19 -7 -19 -271 -20 -149 0 -271 1 -270 2 2 1 79 30
172 63 94 34 204 75 245 90 84 33 100 35 101 18z m4115 -39 c77 -27 159 -57
184 -65 25 -8 54 -19 65 -24 11 -5 38 -14 60 -21 22 -7 43 -16 47 -19 6 -4
-505 -5 -534 -1 -4 1 -5 7 -3 14 2 6 7 30 10 52 14 95 18 115 25 115 4 0 70
-23 146 -51z m-2756 -125 c0 -2 -26 -4 -57 -6 l-58 -3 -32 -54 c-18 -30 -31
-56 -29 -59 3 -2 69 -3 148 -3 138 2 145 1 165 -21 23 -25 29 -42 38 -103 3
-22 10 -66 16 -97 13 -75 17 -95 23 -142 4 -21 8 -41 10 -45 2 -3 7 -26 10
-51 3 -25 11 -72 16 -105 6 -33 15 -85 20 -115 6 -30 12 -66 15 -80 3 -14 14
-79 26 -145 24 -141 23 -140 55 -318 13 -76 24 -142 24 -147 0 -22 -328 47
-425 89 -11 5 -51 21 -90 37 -79 31 -206 96 -278 141 l-48 30 73 60 c40 33 84
71 98 83 14 12 42 36 64 53 21 18 43 37 50 42 6 6 95 82 199 168 171 145 187
161 182 185 -3 15 -8 44 -11 65 -4 20 -9 37 -12 37 -5 0 -60 -44 -108 -86 -12
-11 -43 -37 -70 -59 -45 -38 -273 -230 -378 -318 -27 -23 -80 -68 -118 -101
l-68 -58 -33 25 c-17 13 -53 44 -80 68 l-47 44 321 553 321 552 34 -56 c19
-31 34 -58 34 -60z m2490 -130 c0 -7 -54 -155 -75 -204 -23 -57 -103 -208
-138 -264 -67 -108 -215 -295 -232 -295 -10 -1 -75 103 -75 120 0 5 -4 9 -10
9 -5 0 -10 4 -10 9 0 5 -52 97 -115 205 -63 109 -115 198 -115 200 0 4 -111
189 -117 196 -2 2 -35 5 -73 6 l-68 1 18 -31 c78 -136 381 -656 420 -722 27
-46 47 -89 44 -96 -8 -19 -133 -121 -148 -121 -12 0 -203 157 -626 517 -14 12
-81 68 -150 126 -69 58 -138 117 -155 132 -16 16 -33 28 -37 28 -5 0 -8 4 -8
9 0 10 112 53 119 45 3 -2 0 -27 -5 -54 l-11 -50 53 -46 c62 -52 52 -66 84
121 18 101 25 124 46 142 l25 23 679 -2 c374 -2 680 -3 680 -4z m-2113 -150
l51 -17 -43 -41 -44 -41 11 -62 c6 -35 14 -63 17 -63 3 0 53 41 111 90 117
100 150 111 201 67 15 -12 48 -40 75 -62 51 -42 312 -262 354 -298 14 -12 50
-42 80 -67 30 -25 60 -50 66 -56 11 -9 54 -46 163 -138 25 -21 57 -48 71 -60
14 -11 65 -54 113 -95 l88 -74 -35 -23 c-50 -34 -211 -118 -276 -144 -30 -12
-64 -26 -75 -31 -69 -29 -282 -85 -365 -96 -78 -11 -85 -10 -83 12 3 32 12 95
23 157 6 32 12 68 14 80 2 13 11 61 19 108 9 47 18 99 20 115 3 17 12 73 22
125 9 52 18 109 21 125 3 17 7 37 9 45 19 71 15 84 -38 127 -29 23 -53 41 -54
40 -1 -2 -11 -54 -22 -117 -22 -127 -28 -163 -36 -200 -3 -14 -8 -45 -11 -70
-3 -25 -7 -52 -9 -60 -2 -8 -6 -28 -9 -45 -9 -57 -36 -210 -41 -235 -7 -36
-11 -56 -25 -147 l-14 -83 -33 -1 c-18 0 -49 -1 -68 -1 -120 0 -112 -3 -118
50 -4 26 -9 58 -11 72 -3 14 -19 104 -35 200 -17 96 -33 185 -35 196 -2 12 -7
39 -10 60 -4 22 -17 102 -31 179 -13 77 -27 158 -30 180 -4 22 -8 47 -10 55
-2 8 -6 29 -9 45 -3 17 -12 71 -20 120 -19 109 -19 108 -3 102 6 -3 35 -13 64
-23z m-969 -879 c-2 -2 -41 -35 -88 -75 -47 -39 -94 -79 -105 -88 -92 -76
-212 -178 -218 -187 -24 -29 10 33 132 242 l134 231 74 -61 c40 -33 72 -61 71
-62z m2615 48 c24 -43 54 -94 64 -113 52 -90 156 -267 167 -280 10 -13 9 -13
-9 0 -17 13 -177 147 -339 284 -27 22 -55 45 -63 51 -10 8 2 23 59 72 40 34
74 62 75 62 1 1 21 -34 46 -76z m-1318 -525 c-7 -40 -15 -86 -18 -103 -3 -16
-17 -97 -32 -179 -15 -83 -27 -158 -28 -167 -1 -10 -5 -15 -9 -13 -5 3 -8 11
-6 17 2 10 -10 89 -18 122 -3 12 -12 64 -19 103 -2 15 -13 81 -25 148 -11 67
-20 126 -20 133 0 7 30 11 94 11 l93 0 -12 -72z"/>
</g>
</svg>
